<svg width="37" height="37" viewBox="0 0 37 37" fill="none" xmlns="http://www.w3.org/2000/svg">
<path d="M22.0554 6.66179H20.2052V4.81152C20.2052 4.64795 20.1402 4.49107 20.0245 4.37541C19.9089 4.25974 19.752 4.19476 19.5884 4.19476H17.1214C16.9578 4.19476 16.8009 4.25974 16.6853 4.37541C16.5696 4.49107 16.5046 4.64795 16.5046 4.81152V6.66179H14.6544C14.4908 6.66179 14.3339 6.72677 14.2182 6.84243C14.1026 6.9581 14.0376 7.11497 14.0376 7.27855V9.74558C14.0376 9.90915 14.1026 10.066 14.2182 10.1817C14.3339 10.2974 14.4908 10.3623 14.6544 10.3623H16.5046V12.2126C16.5046 12.3762 16.5696 12.5331 16.6853 12.6487C16.8009 12.7644 16.9578 12.8294 17.1214 12.8294H19.5884C19.752 12.8294 19.9089 12.7644 20.0245 12.6487C20.1402 12.5331 20.2052 12.3762 20.2052 12.2126V10.3623H22.0554C22.219 10.3623 22.3759 10.2974 22.4916 10.1817C22.6072 10.066 22.6722 9.90915 22.6722 9.74558V7.27855C22.6722 7.11497 22.6072 6.9581 22.4916 6.84243C22.3759 6.72677 22.219 6.66179 22.0554 6.66179ZM21.4387 9.12882H19.5884C19.4248 9.12882 19.268 9.1938 19.1523 9.30946C19.0366 9.42513 18.9717 9.582 18.9717 9.74558V11.5958H17.7381V9.74558C17.7381 9.582 17.6732 9.42513 17.5575 9.30946C17.4418 9.1938 17.285 9.12882 17.1214 9.12882H15.2711V7.8953H17.1214C17.285 7.8953 17.4418 7.83032 17.5575 7.71466C17.6732 7.599 17.7381 7.44212 17.7381 7.27855V5.42828H18.9717V7.27855C18.9717 7.44212 19.0366 7.599 19.1523 7.71466C19.268 7.83032 19.4248 7.8953 19.5884 7.8953H21.4387V9.12882Z" fill="white"/>
<path d="M35.4576 9.96763C35.4701 9.85912 35.4763 9.74998 35.4761 9.64075C35.4731 9.07541 35.277 8.52808 34.9203 8.08948C34.5636 7.65088 34.0677 7.34736 33.5148 7.22923C32.8894 7.11019 32.2422 7.23315 31.704 7.57322C31.1659 7.91329 30.777 8.44508 30.616 9.061L27.9023 16.8691C27.8621 16.8851 27.823 16.9036 27.7851 16.9246L22.333 20.1194C21.4987 20.6095 20.8067 21.3088 20.3254 22.1481C19.844 22.9875 19.59 23.9379 19.5884 24.9055V30.7153C19.4249 30.7153 19.268 30.7803 19.1523 30.896C19.0367 31.0116 18.9717 31.1685 18.9717 31.3321V36.2661C18.9717 36.4297 19.0367 36.5866 19.1523 36.7023C19.268 36.8179 19.4249 36.8829 19.5884 36.8829H28.223C28.3866 36.8829 28.5435 36.8179 28.6591 36.7023C28.7748 36.5866 28.8398 36.4297 28.8398 36.2661V31.3321C28.8398 31.1685 28.7748 31.0116 28.6591 30.896C28.5435 30.7803 28.3866 30.7153 28.223 30.7153V29.3585C28.2242 29.098 28.2796 28.8406 28.3858 28.6027C28.492 28.3648 28.6466 28.1517 28.8398 27.9769L33.0091 24.2702C33.4651 23.8712 33.7916 23.345 33.9465 22.7592L36.6233 12.7492C36.6804 12.5402 36.7094 12.3245 36.7096 12.1078C36.7072 11.6725 36.5902 11.2456 36.3704 10.8699C36.1506 10.4942 35.8358 10.183 35.4576 9.96763ZM31.7941 9.42489C31.8698 9.10593 32.0629 8.82722 32.335 8.64433C32.607 8.46144 32.938 8.38779 33.2619 8.43807C33.5384 8.49597 33.7866 8.64699 33.9651 8.86589C34.1436 9.08479 34.2415 9.35831 34.2426 9.64075V9.65309C33.6917 9.66331 33.1592 9.8532 32.7261 10.1939C32.293 10.5345 31.9831 11.0073 31.8434 11.5404L30.1226 16.8506C29.8621 16.7271 29.5828 16.6479 29.2962 16.6163L31.7941 9.42489ZM27.6063 35.6494H20.2052V31.9488H27.6063V35.6494ZM35.4329 12.4285L32.75 22.4446C32.6572 22.7927 32.4642 23.1058 32.1949 23.3451L28.0195 27.0518C27.6964 27.3432 27.4379 27.6989 27.2605 28.0962C27.0831 28.4934 26.9908 28.9234 26.9895 29.3585V30.7153H20.822V24.9055C20.825 24.153 21.0232 23.4142 21.3973 22.7612C21.7713 22.1083 22.3084 21.5636 22.9559 21.1803L28.4019 17.9916C28.5423 17.9098 28.6975 17.8566 28.8586 17.8349C29.0196 17.8133 29.1834 17.8237 29.3404 17.8655C29.4975 17.9073 29.6447 17.9798 29.7736 18.0787C29.9026 18.1776 30.0107 18.301 30.0918 18.4419C30.252 18.7269 30.2962 19.0626 30.2152 19.3793C30.1723 19.5357 30.0991 19.6821 29.9996 19.8102C29.9001 19.9383 29.7764 20.0454 29.6354 20.1256L26.1014 22.1671C25.9671 22.2524 25.8711 22.3863 25.8332 22.5408C25.7954 22.6953 25.8187 22.8585 25.8983 22.9962C25.9779 23.1339 26.1076 23.2356 26.2604 23.2799C26.4132 23.3242 26.5772 23.3078 26.7181 23.2341L30.2522 21.1926C30.5346 21.0323 30.7822 20.8172 30.9803 20.5598C31.1783 20.3024 31.3229 20.008 31.4055 19.6939C31.5734 19.0628 31.4847 18.391 31.1588 17.8251L31.1218 17.7696L33.0276 11.8919C33.1033 11.573 33.2964 11.2943 33.5685 11.1114C33.8405 10.9285 34.1715 10.8548 34.4954 10.9051C34.7719 10.963 35.0201 11.114 35.1986 11.3329C35.3771 11.5518 35.475 11.8253 35.4761 12.1078C35.4782 12.2163 35.4636 12.3244 35.4329 12.4285Z" fill="white"/>
<path d="M17.1212 30.7153V24.9055C17.1196 23.9379 16.8656 22.9875 16.3842 22.1481C15.9029 21.3088 15.2109 20.6095 14.3766 20.1195L8.92447 16.9185C8.88747 16.9 8.8443 16.8877 8.80729 16.8692L6.11206 9.10419C5.95541 8.47928 5.56654 7.93755 5.02459 7.58923C4.48263 7.24091 3.82831 7.11219 3.1948 7.22925C2.64193 7.34737 2.14604 7.65089 1.78933 8.08949C1.43261 8.52809 1.23651 9.07543 1.23351 9.64077C1.23335 9.74999 1.23953 9.85914 1.25202 9.96765C0.8738 10.183 0.558969 10.4942 0.339186 10.8699C0.119404 11.2456 0.00242015 11.6725 0 12.1078C0.0011979 12.324 0.0281131 12.5393 0.0801783 12.7492L2.76307 22.753C2.91639 23.3413 3.24301 23.8699 3.70054 24.2702L7.86365 27.9769C8.05875 28.1505 8.21507 28.3633 8.3224 28.6013C8.42973 28.8394 8.48568 29.0974 8.48658 29.3585V30.7153C8.323 30.7153 8.16613 30.7803 8.05046 30.896C7.9348 31.0117 7.86982 31.1685 7.86982 31.3321V36.2662C7.86982 36.4297 7.9348 36.5866 8.05046 36.7023C8.16613 36.8179 8.323 36.8829 8.48658 36.8829H17.1212C17.2847 36.8829 17.4416 36.8179 17.5573 36.7023C17.673 36.5866 17.7379 36.4297 17.7379 36.2662V31.3321C17.7379 31.1685 17.673 31.0117 17.5573 30.896C17.4416 30.7803 17.2847 30.7153 17.1212 30.7153ZM2.46703 9.64077C2.46779 9.35918 2.56487 9.08633 2.74214 8.86755C2.91941 8.64877 3.1662 8.49722 3.4415 8.43809C3.77434 8.38978 4.11314 8.46909 4.38995 8.66011C4.66677 8.85114 4.86113 9.13975 4.93406 9.46807L7.41342 16.6163C7.12681 16.6479 6.84749 16.7271 6.58696 16.8507L4.87855 11.5712C4.73951 11.0329 4.42896 10.5546 3.99386 10.2085C3.55876 9.86242 3.02279 9.66746 2.46703 9.6531V9.64077ZM8.68394 27.0518L4.51466 23.3451C4.24394 23.1045 4.05075 22.789 3.95958 22.4385L1.27052 12.4285C1.24499 12.3235 1.23256 12.2158 1.23351 12.1078C1.23427 11.8262 1.33135 11.5534 1.50862 11.3346C1.68589 11.1158 1.93268 10.9642 2.20799 10.9051C2.53849 10.8555 2.87551 10.9329 3.15127 11.1217C3.42703 11.3105 3.62107 11.5967 3.69437 11.9228L5.58782 17.7696L5.55081 17.8251C5.22491 18.391 5.13622 19.0629 5.30411 19.6939C5.38669 20.008 5.53127 20.3024 5.72934 20.5598C5.92741 20.8172 6.17497 21.0324 6.45745 21.1926L9.99146 23.2341C10.1324 23.3078 10.2964 23.3242 10.4492 23.2799C10.602 23.2356 10.7317 23.134 10.8113 22.9962C10.8909 22.8585 10.9142 22.6954 10.8764 22.5409C10.8385 22.3863 10.7425 22.2524 10.6082 22.1671L7.0742 20.1256C6.93326 20.0455 6.80951 19.9383 6.71003 19.8102C6.61055 19.6822 6.53729 19.5358 6.49445 19.3794C6.41342 19.0626 6.4576 18.7269 6.6178 18.4419C6.69839 18.3014 6.80586 18.1781 6.93409 18.0791C7.06232 17.9801 7.2088 17.9073 7.36515 17.865C7.5215 17.8226 7.68467 17.8114 7.84534 17.8321C8.00601 17.8528 8.16103 17.9049 8.30155 17.9855L13.7537 21.1803C14.4012 21.5636 14.9383 22.1083 15.3123 22.7613C15.6864 23.4142 15.8846 24.153 15.8877 24.9055V30.7153H9.72009V29.3585C9.71904 28.9228 9.62623 28.4922 9.4477 28.0948C9.26918 27.6974 9.00894 27.342 8.68394 27.0518ZM16.5044 35.6494H9.10333V31.9489H16.5044V35.6494Z" fill="white"/>
<path d="M27.0797 1.80917C26.5072 1.23561 25.8271 0.780584 25.0785 0.470145C24.3299 0.159705 23.5274 -5.7271e-05 22.717 1.54005e-08C21.9065 5.73018e-05 21.1041 0.159933 20.3555 0.470479C19.6069 0.781024 18.9269 1.23614 18.3545 1.80978C17.782 1.23613 17.1021 0.781006 16.3535 0.470475C15.605 0.159945 14.8025 0.000104712 13.9921 0.000104712C13.1817 0.000104712 12.3793 0.159945 11.6307 0.470475C10.8822 0.781006 10.2022 1.23613 9.62981 1.80978C8.47545 2.96662 7.82715 4.53414 7.82715 6.1684C7.82715 7.80267 8.47545 9.37018 9.62981 10.527L17.919 18.8162C18.0347 18.9319 18.1915 18.9968 18.3551 18.9968C18.5186 18.9968 18.6755 18.9319 18.7911 18.8162L27.0803 10.527C28.2346 9.37 28.8828 7.80233 28.8827 6.16797C28.8826 4.53361 28.2342 2.96603 27.0797 1.80917ZM18.3545 17.5081L10.5013 9.65493C9.81183 8.96454 9.34255 8.08523 9.15275 7.12817C8.96296 6.17111 9.06118 5.17926 9.435 4.27802C9.80882 3.37677 10.4415 2.60659 11.2529 2.06483C12.0644 1.52308 13.0183 1.23407 13.994 1.23435C14.6421 1.23212 15.2842 1.35897 15.8828 1.6075C16.4814 1.85602 17.0245 2.22125 17.4805 2.68188L17.9184 3.11978C18.0341 3.2354 18.1909 3.30035 18.3545 3.30035C18.518 3.30035 18.6748 3.2354 18.7905 3.11978L19.2296 2.68064C19.6875 2.22193 20.2314 1.85802 20.83 1.60972C21.4287 1.36142 22.0705 1.23361 22.7186 1.23361C23.3668 1.23361 24.0085 1.36142 24.6072 1.60972C25.2059 1.85802 25.7497 2.22193 26.2076 2.68064C27.1315 3.60577 27.6504 4.85974 27.6504 6.16717C27.6504 7.4746 27.1315 8.72858 26.2076 9.6537L18.3545 17.5081Z" fill="white"/>
</svg>
