<svg width="35" height="34" viewBox="0 0 35 34" fill="none" xmlns="http://www.w3.org/2000/svg">
<path d="M27.565 25.4191C27.2833 25.4191 27.0549 25.6475 27.0549 25.9292V30.5357C27.0549 31.8834 25.9584 32.9799 24.6107 32.9799H3.46438C2.11666 32.9799 1.02018 31.8834 1.02018 30.5357V6.91574C1.02018 5.56802 2.11666 4.47153 3.46438 4.47153H6.4133C6.695 4.47153 6.92339 4.24315 6.92339 3.96144C6.92339 3.67974 6.695 3.45135 6.4133 3.45135H3.46438C1.55414 3.45135 0 5.00549 0 6.91574V30.5357C0 32.4459 1.55414 34 3.46438 34H24.6106C26.5209 34 28.075 32.4459 28.075 30.5357V25.9292C28.0751 25.6475 27.8467 25.4191 27.565 25.4191Z" fill="white"/>
<path d="M21.6619 4.47153H24.6109C25.9586 4.47153 27.0551 5.56802 27.0551 6.91574V10.1009C27.0551 10.3826 27.2835 10.611 27.5652 10.611C27.8469 10.611 28.0752 10.3826 28.0752 10.1009V6.91574C28.0752 5.00549 26.5211 3.45135 24.6109 3.45135H21.6619C21.3802 3.45135 21.1519 3.67974 21.1519 3.96144C21.1519 4.24315 21.3802 4.47153 21.6619 4.47153Z" fill="white"/>
<path d="M2.55062 11.7079C2.26891 11.7079 2.04053 11.9363 2.04053 12.218V30.5357C2.04053 31.3209 2.67936 31.9597 3.46456 31.9597H24.6108C25.396 31.9597 26.0349 31.3209 26.0349 30.5357V25.9492C26.0349 25.6675 25.8065 25.4391 25.5248 25.4391C25.2431 25.4391 25.0147 25.6675 25.0147 25.9492V30.5357C25.0147 30.7584 24.8335 30.9395 24.6108 30.9395H3.46456C3.24189 30.9395 3.0607 30.7584 3.0607 30.5357V12.218C3.0607 11.9363 2.83232 11.7079 2.55062 11.7079Z" fill="white"/>
<path d="M6.54345 5.4917H3.46456C2.67936 5.4917 2.04053 6.13053 2.04053 6.91573V10.0442C2.04053 10.3259 2.26891 10.5543 2.55062 10.5543C2.83232 10.5543 3.0607 10.3259 3.0607 10.0442V6.91573C3.0607 6.69306 3.24189 6.51187 3.46456 6.51187H6.54338C6.82508 6.51187 7.05346 6.28349 7.05346 6.00179C7.05346 5.72008 6.82515 5.4917 6.54345 5.4917Z" fill="white"/>
<path d="M21.5316 6.51187H24.6104C24.8331 6.51187 25.0143 6.69306 25.0143 6.91573V10.1198C25.0143 10.4015 25.2426 10.6299 25.5243 10.6299C25.806 10.6299 26.0344 10.4015 26.0344 10.1198V6.91573C26.0344 6.13053 25.3956 5.4917 24.6104 5.4917H21.5316C21.2499 5.4917 21.0215 5.72008 21.0215 6.00179C21.0215 6.28349 21.2499 6.51187 21.5316 6.51187Z" fill="white"/>
<path d="M9.88285 7.0031H12.2545C12.5362 7.0031 12.7646 6.77471 12.7646 6.49301C12.7646 6.21131 12.5362 5.98292 12.2545 5.98292H9.88285C9.37596 5.98292 8.96354 5.5705 8.96354 5.06361V3.45649C8.96354 2.94953 9.37596 2.53711 9.88285 2.53711H10.6989C11.0744 2.53711 11.3799 2.2316 11.3799 1.85611V1.35275C11.3799 1.16939 11.5291 1.02018 11.7125 1.02018H16.3621C16.5455 1.02018 16.6947 1.16939 16.6947 1.35275V1.85611C16.6947 2.2316 17.0002 2.53711 17.3757 2.53711H18.1918C18.6987 2.53711 19.1111 2.94953 19.1111 3.45649V5.06361C19.1111 5.5705 18.6987 5.98292 18.1918 5.98292H14.4283C14.1466 5.98292 13.9182 6.21131 13.9182 6.49301C13.9182 6.77471 14.1466 7.0031 14.4283 7.0031H18.1918C19.2613 7.0031 20.1313 6.13309 20.1313 5.06361V3.45649C20.1313 2.38701 19.2613 1.51693 18.1918 1.51693H17.7149V1.35275C17.7149 0.606868 17.108 0 16.3621 0H11.7125C10.9666 0 10.3597 0.606868 10.3597 1.35275V1.51693H9.88285C8.81337 1.51693 7.94336 2.38701 7.94336 3.45649V5.06361C7.94336 6.13309 8.81343 7.0031 9.88285 7.0031Z" fill="white"/>
<path d="M16.1654 3.78444C16.1654 3.50274 15.937 3.27435 15.6553 3.27435H12.4202C12.1385 3.27435 11.9102 3.50274 11.9102 3.78444C11.9102 4.06615 12.1385 4.29453 12.4202 4.29453H15.6553C15.937 4.29453 16.1654 4.06615 16.1654 3.78444Z" fill="white"/>
<path d="M33.9624 13.4897C32.6365 11.4244 29.9595 10.6496 27.7356 11.6875L26.5741 12.2295C26.5399 12.2455 26.5007 12.2453 26.4665 12.2295L25.3051 11.6875C23.0811 10.6496 20.4042 11.4244 19.0783 13.4897C18.4109 14.5292 18.1594 15.772 18.3698 16.9893C18.5803 18.2065 19.2346 19.2927 20.2122 20.0478L25.8025 24.3652C26.0138 24.5284 26.267 24.61 26.5203 24.61C26.7735 24.61 27.0267 24.5284 27.2381 24.3651L29.3702 22.7185C29.5932 22.5463 29.6343 22.226 29.4622 22.003C29.29 21.78 28.9696 21.7389 28.7466 21.911L26.6146 23.5576C26.5591 23.6005 26.4816 23.6006 26.4261 23.5576L20.836 19.2403C20.6166 19.0708 20.4187 18.8799 20.2426 18.672H22.3819C22.6112 18.672 22.8124 18.519 22.8735 18.2979L23.4479 16.221L25.0447 20.6491C25.1174 20.8506 25.3082 20.9852 25.5223 20.9862H25.5246C25.7378 20.9862 25.9286 20.8536 26.0028 20.6535L27.5183 16.5686L27.9764 18.0666C28.042 18.2811 28.2399 18.4276 28.4642 18.4276H32.9894C32.7705 18.7321 32.5075 19.0064 32.2047 19.2403L30.4812 20.5714C30.2583 20.7436 30.2171 21.0639 30.3892 21.2869C30.5615 21.5099 30.8817 21.551 31.1048 21.3789L32.8283 20.0478C33.806 19.2927 34.4604 18.2065 34.6708 16.9893C34.8813 15.772 34.6297 14.5292 33.9624 13.4897ZM28.8416 17.4074L28.0527 14.8274C27.9887 14.6182 27.7985 14.473 27.5798 14.4667C27.3602 14.4586 27.1627 14.594 27.0867 14.7991L25.5314 18.9913L23.8635 14.3664C23.7882 14.1574 23.586 14.0223 23.3642 14.0297C23.1423 14.0382 22.9513 14.1894 22.8921 14.4035L21.9937 17.652H19.6186C19.5077 17.3852 19.4253 17.1052 19.3752 16.8154C19.2083 15.8504 19.4077 14.865 19.9369 14.0408C20.9881 12.4033 23.1105 11.7891 24.8737 12.612L26.0351 13.154C26.3434 13.2978 26.6972 13.2979 27.0055 13.154L28.167 12.612C29.9302 11.7891 32.0526 12.4034 33.1039 14.0408C33.6329 14.865 33.8324 15.8504 33.6656 16.8154C33.6305 17.018 33.5791 17.2155 33.514 17.4075H28.8416V17.4074Z" fill="white"/>
<path d="M6.16855 14.1114H8.56542C9.14733 14.1114 9.62076 13.638 9.62076 13.0561V10.4131C9.62076 9.83116 9.14733 9.35773 8.56542 9.35773H6.16855C5.58664 9.35773 5.11328 9.83116 5.11328 10.4131V13.0561C5.11328 13.638 5.58664 14.1114 6.16855 14.1114ZM6.13346 10.4131C6.13346 10.3937 6.14917 10.3779 6.16855 10.3779H8.56542C8.5848 10.3779 8.60058 10.3937 8.60058 10.4131V13.0561C8.60058 13.0755 8.5848 13.0912 8.56542 13.0912H6.16855C6.14917 13.0912 6.13346 13.0755 6.13346 13.0561V10.4131Z" fill="white"/>
<path d="M5.11328 19.7705C5.11328 20.3524 5.58664 20.8258 6.16855 20.8258H8.56542C9.14733 20.8258 9.62076 20.3524 9.62076 19.7705V17.1275C9.62076 16.5456 9.14733 16.0722 8.56542 16.0722H6.16855C5.58664 16.0722 5.11328 16.5456 5.11328 17.1275V19.7705ZM6.13346 17.1275C6.13346 17.1081 6.14917 17.0924 6.16855 17.0924H8.56542C8.5848 17.0924 8.60058 17.1081 8.60058 17.1275V19.7705C8.60058 19.7899 8.5848 19.8056 8.56542 19.8056H6.16855C6.14917 19.8056 6.13346 19.7899 6.13346 19.7705V17.1275Z" fill="white"/>
<path d="M5.11328 26.4848C5.11328 27.0667 5.58664 27.5402 6.16855 27.5402H8.56542C9.14733 27.5402 9.62076 27.0667 9.62076 26.4848V23.8418C9.62076 23.2599 9.14733 22.7866 8.56542 22.7866H6.16855C5.58664 22.7866 5.11328 23.2599 5.11328 23.8418V26.4848ZM6.13346 23.8418C6.13346 23.8224 6.14917 23.8067 6.16855 23.8067H8.56542C8.5848 23.8067 8.60058 23.8224 8.60058 23.8418V26.4848C8.60058 26.5042 8.5848 26.52 8.56542 26.52H6.16855C6.14917 26.52 6.13346 26.5042 6.13346 26.4848V23.8418Z" fill="white"/>
<path d="M11.1346 10.6299H17.0686C17.3503 10.6299 17.5786 10.4015 17.5786 10.1198C17.5786 9.83806 17.3503 9.60968 17.0686 9.60968H11.1346C10.8529 9.60968 10.6245 9.83806 10.6245 10.1198C10.6245 10.4015 10.8529 10.6299 11.1346 10.6299Z" fill="white"/>
<path d="M11.1346 13.8951H17.0686C17.3503 13.8951 17.5786 13.6667 17.5786 13.385C17.5786 13.1033 17.3503 12.8749 17.0686 12.8749H11.1346C10.8529 12.8749 10.6245 13.1033 10.6245 13.385C10.6245 13.6667 10.8529 13.8951 11.1346 13.8951Z" fill="white"/>
<path d="M11.1346 17.3264H17.0686C17.3503 17.3264 17.5786 17.098 17.5786 16.8163C17.5786 16.5346 17.3503 16.3062 17.0686 16.3062H11.1346C10.8529 16.3062 10.6245 16.5346 10.6245 16.8163C10.6245 17.0981 10.8529 17.3264 11.1346 17.3264Z" fill="white"/>
<path d="M17.8847 19.5715H11.1346C10.8529 19.5715 10.6245 19.7999 10.6245 20.0816C10.6245 20.3633 10.8529 20.5917 11.1346 20.5917H17.8847C18.1664 20.5917 18.3948 20.3633 18.3948 20.0816C18.3948 19.7999 18.1664 19.5715 17.8847 19.5715Z" fill="white"/>
<path d="M20.5255 23.0027H11.1346C10.8529 23.0027 10.6245 23.2311 10.6245 23.5128C10.6245 23.7945 10.8529 24.0229 11.1346 24.0229H20.5255C20.8072 24.0229 21.0356 23.7945 21.0356 23.5128C21.0356 23.2311 20.8072 23.0027 20.5255 23.0027Z" fill="white"/>
<path d="M22.6761 26.268H11.1346C10.8529 26.268 10.6245 26.4964 10.6245 26.7781C10.6245 27.0598 10.8529 27.2882 11.1346 27.2882H22.6761C22.9578 27.2882 23.1862 27.0598 23.1862 26.7781C23.1862 26.4964 22.9578 26.268 22.6761 26.268Z" fill="white"/>
</svg>
