<svg width="37" height="38" viewBox="0 0 37 38" fill="none" xmlns="http://www.w3.org/2000/svg">
<g clip-path="url(#clip0)">
<path d="M31.461 23.7634C30.7702 23.4273 29.9933 23.3876 29.2738 23.6514C28.8213 23.8173 28.4258 24.091 28.113 24.4473C27.8646 24.1655 27.5617 23.9321 27.2145 23.7634C26.5237 23.4273 25.7472 23.3876 25.0273 23.6514C24.3106 23.9144 23.7359 24.447 23.4081 25.1518L21.4993 29.0306C21.4307 28.8117 21.3934 28.5789 21.3934 28.3368V23.8416C21.4016 23.7973 21.4062 23.7515 21.4062 23.7048V17.4898C25.5913 17.1129 28.8851 13.4936 28.8851 9.09906V4.06349C28.8851 2.65681 27.7709 1.51251 26.4012 1.51251C25.0316 1.51251 23.9174 2.65681 23.9174 4.06349V9.09906C23.9174 10.9302 22.4667 12.4201 20.6835 12.4201H19.7452C20.511 11.5779 20.981 10.4486 20.981 9.20778V8.71927C20.981 6.12132 18.9231 4.00783 16.3936 4.00783C13.8643 4.00783 11.8064 6.12132 11.8064 8.71927V9.20778C11.8064 10.4486 12.2764 11.5779 13.0423 12.4201H12.1039C10.3207 12.4201 8.87004 10.9302 8.87004 9.09906V4.06349C8.87004 2.65681 7.75585 1.51251 6.38619 1.51251C5.01653 1.51251 3.90234 2.65681 3.90234 4.06349V9.09906C3.90234 13.5084 7.21838 17.137 11.4236 17.4933V23.7048C11.4236 23.7123 11.4245 23.7199 11.4247 23.7277V28.3368C11.4247 28.5426 11.4324 28.7508 11.4473 28.9555C11.4761 29.3451 11.7928 29.6417 12.1672 29.6417C12.1855 29.6417 12.2039 29.6411 12.2225 29.6397C12.6205 29.6087 12.9186 29.2523 12.8887 28.8436C12.8763 28.676 12.8701 28.5055 12.8701 28.3368V24.447H19.9481V28.3368C19.9481 30.4091 21.5896 32.095 23.6074 32.095C25.0107 32.095 26.3061 31.2551 26.9102 29.9548L28.9486 25.8134C28.9511 25.8078 28.954 25.802 28.9565 25.7962C29.1185 25.4454 29.4039 25.1799 29.7599 25.0494C30.1161 24.919 30.5003 24.9387 30.8422 25.1048C31.5454 25.4469 31.8477 26.3109 31.5194 27.0339L29.4818 31.1736C29.479 31.1791 29.4765 31.1849 29.4736 31.1907C28.4055 33.5066 26.1029 35.0031 23.6077 35.0031C20.0286 35.0031 17.1168 32.0126 17.1168 28.3368V27.9509C17.1168 27.541 16.7933 27.2087 16.3941 27.2087C15.995 27.2087 15.6715 27.541 15.6715 27.9509V28.3368C15.6715 31.0832 17.0011 33.5167 19.0338 34.9942C17.6788 34.9257 16.4057 34.4346 15.3341 33.5611C15.0214 33.3063 14.5669 33.3599 14.3188 33.6811C14.0709 34.0023 14.1231 34.4691 14.4359 34.724C15.8516 35.8778 17.5549 36.4875 19.3615 36.4875C20.0735 36.4875 20.7834 36.3863 21.4747 36.1883C22.1536 36.3831 22.869 36.4875 23.6077 36.4875C26.6556 36.4875 29.468 34.6616 30.7758 31.8349L32.814 27.694C32.8168 27.6882 32.8193 27.6827 32.8221 27.6769C33.4971 26.2126 32.8865 24.4568 31.461 23.7634ZM13.2517 9.20778V8.71927C13.2517 6.93976 14.6612 5.4922 16.3939 5.4922C18.1263 5.4922 19.5357 6.93976 19.5357 8.71927V9.20778C19.5357 10.8847 18.2838 12.2664 16.6891 12.4201H16.0983C14.5037 12.2667 13.2517 10.8847 13.2517 9.20778ZM5.34766 9.09906V4.06349C5.34766 3.47525 5.81343 2.99689 6.38619 2.99689C6.95895 2.99689 7.42473 3.47525 7.42473 4.06349V9.09906C7.42473 11.7489 9.52382 13.9044 12.1039 13.9044H16.0486C16.1627 13.9134 16.2775 13.9192 16.3939 13.9192C16.5099 13.9192 16.6248 13.9134 16.7388 13.9044H20.6835C23.2636 13.9044 25.3627 11.7489 25.3627 9.09906V4.06349C25.3627 3.47525 25.8285 2.99689 26.4012 2.99689C26.974 2.99689 27.4398 3.47525 27.4398 4.06349V9.09906C27.4398 12.9251 24.4091 16.0379 20.6838 16.0379C20.2846 16.0379 19.9611 16.3702 19.9611 16.7801V22.9626H12.8689V16.7801C12.8689 16.3702 12.5454 16.0379 12.1463 16.0379H12.1039C8.37858 16.0379 5.34766 12.9251 5.34766 9.09906ZM25.6162 29.2932C25.6134 29.2987 25.6108 29.3045 25.608 29.31C25.2439 30.1001 24.4582 30.6106 23.6074 30.6106C23.197 30.6106 22.8128 30.4949 22.4828 30.2943C22.5489 30.1841 22.6098 30.0705 22.6637 29.9548L24.7019 25.8134C24.7047 25.8078 24.7072 25.802 24.71 25.7962C24.8718 25.4452 25.1572 25.1799 25.5134 25.0494C25.8694 24.9187 26.2539 24.9384 26.5957 25.1048C26.9209 25.2631 27.1688 25.535 27.3006 25.8705L25.6162 29.2932Z" fill="white"/>
<path d="M13.6368 31.4775C13.4457 31.1177 13.0067 30.9852 12.6561 31.1812C12.3058 31.3774 12.1765 31.8283 12.3676 32.1878C12.4975 32.4391 12.7476 32.5823 13.0064 32.5823C13.1208 32.5823 13.2365 32.5545 13.3446 32.4957C13.6972 32.3037 13.8313 31.8541 13.6444 31.4922L13.6368 31.4775Z" fill="white"/>
<path d="M3.61328 30.5781C3.21413 30.5781 2.89062 30.9104 2.89062 31.3203V32.3455C2.89062 32.7554 3.21413 33.0876 3.61328 33.0876C4.01244 33.0876 4.33594 32.7554 4.33594 32.3455V31.3203C4.33594 30.9104 4.01244 30.5781 3.61328 30.5781Z" fill="white"/>
<path d="M3.61328 35.4905C3.21413 35.4905 2.89062 35.8227 2.89062 36.2327V37.2578C2.89062 37.6678 3.21413 38 3.61328 38C4.01244 38 4.33594 37.6678 4.33594 37.2578V36.2327C4.33594 35.8227 4.01244 35.4905 3.61328 35.4905Z" fill="white"/>
<path d="M6.50403 33.5469H5.50586C5.1067 33.5469 4.7832 33.8791 4.7832 34.2891C4.7832 34.699 5.1067 35.0312 5.50586 35.0312H6.50403C6.90318 35.0312 7.22668 34.699 7.22668 34.2891C7.22668 33.8791 6.90318 33.5469 6.50403 33.5469Z" fill="white"/>
<path d="M1.72083 33.5469H0.722656C0.323502 33.5469 0 33.8791 0 34.2891C0 34.699 0.323502 35.0312 0.722656 35.0312H1.72083C2.11998 35.0312 2.44348 34.699 2.44348 34.2891C2.44348 33.8791 2.11998 33.5469 1.72083 33.5469Z" fill="white"/>
<path d="M33.3867 0C32.9876 0 32.6641 0.332245 32.6641 0.742188V1.76733C32.6641 2.17728 32.9876 2.50952 33.3867 2.50952C33.7859 2.50952 34.1094 2.17728 34.1094 1.76733V0.742188C34.1094 0.332245 33.7859 0 33.3867 0Z" fill="white"/>
<path d="M33.3867 4.91235C32.9876 4.91235 32.6641 5.2446 32.6641 5.65454V6.67969C32.6641 7.08963 32.9876 7.42188 33.3867 7.42188C33.7859 7.42188 34.1094 7.08963 34.1094 6.67969V5.65454C34.1094 5.2446 33.7859 4.91235 33.3867 4.91235Z" fill="white"/>
<path d="M36.2775 2.96875H35.2793C34.8801 2.96875 34.5566 3.30099 34.5566 3.71094C34.5566 4.12088 34.8801 4.45312 35.2793 4.45312H36.2775C36.6766 4.45312 37.0001 4.12088 37.0001 3.71094C37.0001 3.30099 36.6766 2.96875 36.2775 2.96875Z" fill="white"/>
<path d="M30.4961 4.45312H31.4943C31.8934 4.45312 32.2169 4.12088 32.2169 3.71094C32.2169 3.30099 31.8934 2.96875 31.4943 2.96875H30.4961C30.0969 2.96875 29.7734 3.30099 29.7734 3.71094C29.7734 4.12088 30.0969 4.45312 30.4961 4.45312Z" fill="white"/>
</g>
<defs>
<clipPath id="clip0">
<rect width="37" height="38" fill="white"/>
</clipPath>
</defs>
</svg>
